<svg width="272" height="97" viewBox="0 0 272 97" fill="none" xmlns="http://www.w3.org/2000/svg">
<path opacity="0.7" d="M265.86 11.25V62.09H260.36V67.74H44.45C44.23 71.5 44 75.25 43.8 79H33.15V84.63L29.09 85.74L27.41 91.09H16V84.63H21.72V79H27.44V67.74H4.48999V5.65H260.36V11.25H265.86Z" fill="white"/>
<path d="M32.98 84.63H27.5V90.42H32.98V84.63Z" fill="#DEDEDE"/>
<path d="M27.5 90.42H22.02V96.05H27.5V90.42Z" fill="#DEDEDE"/>
<path d="M27.5 73.37H22.02V79H27.5V73.37Z" fill="#DEDEDE"/>
<path d="M21.97 79H16.49V84.63H21.97V79Z" fill="#DEDEDE"/>
<path d="M16.44 84.79H10.96V90.42H16.44V84.79Z" fill="#DEDEDE"/>
<path d="M22.41 90.42H16.49V96.05H22.41V90.42Z" fill="#DEDEDE"/>
<path d="M16.99 90.42H9.78003V96.05H16.99V90.42Z" fill="#DEDEDE"/>
<path d="M10.85 90.42H5.37V96.05H10.85V90.42Z" fill="#DEDEDE"/>
<path d="M10.96 62.11H5.47998V67.74H10.96V62.11Z" fill="#DEDEDE"/>
<path d="M27.5 67.74H10.96V73.37H27.5V67.74Z" fill="#DEDEDE"/>
<path d="M10.96 5.65H5.47998V11.28H10.96V5.65Z" fill="#DEDEDE"/>
<path d="M38.46 79H32.98V84.79H38.46V79Z" fill="#DEDEDE"/>
<path d="M265.86 62.09H260.38V67.72H265.86V62.09Z" fill="#DEDEDE"/>
<path d="M265.86 5.63H260.38V11.26H265.86V5.63Z" fill="#DEDEDE"/>
<path d="M271.34 11.26H265.86V62.09H271.34V11.26Z" fill="#DEDEDE"/>
<path d="M5.48 11.28H0V62.11H5.48V11.28Z" fill="#DEDEDE"/>
<path d="M43.94 73.53H38.46V79.16H43.94V73.53Z" fill="#DEDEDE"/>
<path d="M252.39 67.74H43.9399V73.37H252.39V67.74Z" fill="#DEDEDE"/>
<path d="M260.37 67.72H252.4V73.35H260.37V67.72Z" fill="#DEDEDE"/>
<path d="M252.4 0.0200005H10.96V5.65H252.4V0.0200005Z" fill="#DEDEDE"/>
<path d="M260.37 0H252.4V5.63H260.37V0Z" fill="#DEDEDE"/>
<path d="M21.25 31.25V29H23.5V31.25H21.25ZM30.25 47H28H25.75H23.5V44.75H25.75H28H30.25V42.5V40.25V38H28V35.75H30.25V33.5V31.25V29H28H25.75H23.5V26.75H25.75H28H30.25H32.5V29H34.75V31.25V33.5V35.75H32.5V38H34.75V40.25V42.5V44.75H32.5V47H30.25ZM23.5 44.75H21.25V42.5H23.5V44.75ZM39.25 35.75V33.5H41.5V35.75H39.25ZM50.5 47H48.25H46H43.75H41.5V44.75H39.25V42.5V40.25H41.5V38H43.75H46H48.25V35.75V33.5H46H43.75H41.5V31.25H43.75H46H48.25H50.5V33.5H52.75V35.75V38V40.25V42.5V44.75V47H50.5ZM46 44.75H48.25V42.5V40.25H46H43.75V42.5V44.75H46ZM68.5 47H66.25V44.75H64V42.5H61.75V44.75V47H59.5H57.25V44.75V42.5V40.25V38V35.75V33.5V31.25H59.5H61.75V33.5V35.75H64V33.5H66.25V31.25H68.5H70.75V33.5H68.5V35.75H66.25V38H64V40.25H66.25V42.5H68.5V44.75H70.75V47H68.5ZM75.25 35.75V33.5H77.5V35.75H75.25ZM86.5 47H84.25H82H79.75H77.5V44.75H75.25V42.5V40.25H77.5V38H79.75H82H84.25V35.75V33.5H82H79.75H77.5V31.25H79.75H82H84.25H86.5V33.5H88.75V35.75V38V40.25V42.5V44.75V47H86.5ZM82 44.75H84.25V42.5V40.25H82H79.75V42.5V44.75H82ZM93.25 35.75V33.5H95.5V35.75H93.25ZM100 47H97.75H95.5V44.75H97.75H100V42.5V40.25H97.75V38H100V35.75V33.5H97.75H95.5V31.25H97.75H100H102.25V33.5H104.5V35.75V38H102.25V40.25H104.5V42.5V44.75H102.25V47H100ZM95.5 44.75H93.25V42.5H95.5V44.75ZM109 35.75V33.5H111.25V35.75H109ZM120.25 47H118H115.75H113.5H111.25V44.75H109V42.5V40.25H111.25V38H113.5H115.75H118V35.75V33.5H115.75H113.5H111.25V31.25H113.5H115.75H118H120.25V33.5H122.5V35.75V38V40.25V42.5V44.75V47H120.25ZM115.75 44.75H118V42.5V40.25H115.75H113.5V42.5V44.75H115.75ZM133.75 47H131.5V44.75V42.5V40.25V38V35.75V33.5H129.25H127V31.25H129.25H131.5H133.75H136H138.25H140.5V33.5H138.25H136V35.75V38V40.25V42.5V44.75V47H133.75ZM151.75 47H149.5H147.25H145V44.75V42.5V40.25V38V35.75V33.5V31.25H147.25H149.5V33.5V35.75V38H151.75H154V40.25H156.25V42.5V44.75H154V47H151.75ZM151.75 44.75V42.5V40.25H149.5V42.5V44.75H151.75ZM181 47H178.75H176.5H174.25V44.75H172V42.5V40.25V38V35.75V33.5V31.25V29V26.75H174.25H176.5V24.5H178.75H181H183.25H185.5V26.75H183.25V29H181H178.75H176.5H174.25V31.25H176.5H178.75H181H183.25V33.5H185.5V35.75V38V40.25V42.5V44.75H183.25V47H181ZM178.75 44.75H181V42.5V40.25V38V35.75V33.5H178.75H176.5V35.75V38V40.25V42.5V44.75H178.75ZM192.25 51.5H190V49.25V47V44.75V42.5V40.25V38V35.75V33.5V31.25H192.25H194.5H196.75H199H201.25V33.5H203.5V35.75V38V40.25V42.5V44.75H201.25V47H199H196.75H194.5V49.25V51.5H192.25ZM196.75 44.75H199V42.5V40.25V38V35.75V33.5H196.75H194.5V35.75V38V40.25V42.5V44.75H196.75ZM219.25 47H217H214.75H212.5H210.25V44.75H208V42.5V40.25V38V35.75V33.5V31.25H210.25H212.5V33.5V35.75V38V40.25V42.5V44.75H214.75H217V42.5V40.25V38V35.75V33.5V31.25H219.25H221.5V33.5V35.75V38V40.25V42.5V44.75V47H219.25ZM237.25 51.5H235V49.25V47H232.75H230.5H228.25V44.75H226V42.5V40.25V38V35.75V33.5H228.25V31.25H230.5H232.75H235V29V26.75H237.25H239.5V29V31.25H241.75H244H246.25V33.5H248.5V35.75V38V40.25V42.5V44.75H246.25V47H244H241.75H239.5V49.25V51.5H237.25ZM241.75 44.75H244V42.5V40.25V38V35.75V33.5H241.75H239.5V35.75V38V40.25V42.5V44.75H241.75ZM232.75 44.75H235V42.5V40.25V38V35.75V33.5H232.75H230.5V35.75V38V40.25V42.5V44.75H232.75Z" fill="black"/>
</svg>
