<svg width="71" height="16" viewBox="0 0 71 16" fill="none" xmlns="http://www.w3.org/2000/svg">
<path d="M40.9227 1.06042V14.6524H4.10383V12.606H2.28711C2.36416 9.4812 2.44221 6.35443 2.52124 3.22568H4.10383V1.06042H40.9227Z" fill="#E48B21"/>
<path d="M69.6595 3.27911L69.415 12.6104L67.8294 12.6624V14.7088H40.8098V1.11682H67.8294V3.27911H69.6595Z" fill="#E48B21"/>
<g opacity="0.26">
<path opacity="0.26" d="M4.10507 3.22864H2.521V4.71326H4.10507V3.22864Z" fill="white"/>
<path opacity="0.26" d="M7.35462 1.74402H4.10498V3.22864H7.35462V1.74402Z" fill="white"/>
</g>
<path opacity="0.38" d="M4.1036 10.8226H2.2854V12.6104H4.1036V10.8226Z" fill="black"/>
<path opacity="0.38" d="M40.9212 12.6105H4.10376V14.3017H40.9212V12.6105Z" fill="black"/>
<path opacity="0.38" d="M67.8281 12.6105H40.9226V14.3017H67.8281V12.6105Z" fill="black"/>
<path d="M4.10383 12.6105H2.52124V14.1976H4.10383V12.6105Z" fill="#DDDDDD"/>
<path d="M67.8311 14.1975H4.10376V15.7847H67.8311V14.1975Z" fill="#DDDDDD"/>
<path d="M70.9976 3.27905H69.415V12.6103H70.9976V3.27905Z" fill="#DDDDDD"/>
<path d="M69.4151 12.6105H67.8325V14.1976H69.4151V12.6105Z" fill="#DDDDDD"/>
<path d="M69.4017 1.69202H67.8191V3.27918H69.4017V1.69202Z" fill="#DDDDDD"/>
<path d="M67.8192 0.104858H4.10376V1.69202H67.8192V0.104858Z" fill="#DDDDDD"/>
<path d="M4.10383 1.74402H2.52124V3.33118H4.10383V1.74402Z" fill="#DDDDDD"/>
<path d="M2.52107 3.33118H0.938477V12.606H2.52107V3.33118Z" fill="#DDDDDD"/>
</svg>
