<svg width="72" height="17" viewBox="0 0 72 17" fill="none" xmlns="http://www.w3.org/2000/svg">
<path d="M40.9463 1.91052V15.5024H3.95208V13.4561H2.12671C2.20413 10.3313 2.28255 7.20452 2.36195 4.07578H3.95208V1.91052H40.9463Z" fill="#F5DD34"/>
<path d="M69.8203 4.12932L69.5746 13.4606L67.9815 13.5126V15.5589H40.8333V1.96704H67.9815V4.12932H69.8203Z" fill="#F5DD34"/>
<g opacity="0.26">
<path opacity="0.26" d="M3.95367 4.07874H2.36206V5.56335H3.95367V4.07874Z" fill="white"/>
<path opacity="0.26" d="M7.21873 2.59412H3.95361V4.07873H7.21873V2.59412Z" fill="white"/>
</g>
<path opacity="0.38" d="M3.9521 11.6729H2.12524V13.4606H3.9521V11.6729Z" fill="black"/>
<path opacity="0.38" d="M40.9451 13.4606H3.95239V15.1518H40.9451V13.4606Z" fill="black"/>
<path opacity="0.38" d="M67.9801 13.4606H40.9465V15.1518H67.9801V13.4606Z" fill="black"/>
<path d="M3.95219 13.4606H2.36206V15.0477H3.95219V13.4606Z" fill="#DDDDDD"/>
<path d="M67.9832 15.0477H3.95239V16.6349H67.9832V15.0477Z" fill="#DDDDDD"/>
<path d="M71.1648 4.12927H69.5747V13.4605H71.1648V4.12927Z" fill="#DDDDDD"/>
<path d="M69.5745 13.4606H67.9844V15.0477H69.5745V13.4606Z" fill="#DDDDDD"/>
<path d="M69.5613 2.54211H67.9712V4.12927H69.5613V2.54211Z" fill="#DDDDDD"/>
<path d="M67.9713 0.954956H3.95239V2.54211H67.9713V0.954956Z" fill="#DDDDDD"/>
<path d="M3.95219 2.59412H2.36206V4.18127H3.95219V2.59412Z" fill="#DDDDDD"/>
<path d="M2.3621 4.18127H0.771973V13.456H2.3621V4.18127Z" fill="#DDDDDD"/>
</svg>
