<svg width="185" height="42" viewBox="0 0 185 42" fill="none" xmlns="http://www.w3.org/2000/svg">
<path d="M181.124 8.17871L180.479 32.6881L176.297 32.8266V38.1867H8.34365V32.8053H3.54834C3.75081 24.6071 3.95507 16.4018 4.16109 8.18938H8.33835V2.48828H176.292V8.16275L181.124 8.17871Z" fill="#FF8D00"/>
<g opacity="0.26">
<path opacity="0.26" d="M8.34911 8.19531H4.17188V12.0795H8.34911V8.19531Z" fill="white"/>
<path opacity="0.26" d="M16.9168 4.30029H8.34912V8.19515H16.9168V4.30029Z" fill="white"/>
</g>
<path opacity="0.38" d="M8.34365 28.1274H3.54834V32.8162H8.34365V28.1274Z" fill="black"/>
<path opacity="0.38" d="M176.372 32.8159H8.34375V37.2543H176.372V32.8159Z" fill="black"/>
<path d="M8.34377 32.8159H4.17188V36.9825H8.34377V32.8159Z" fill="#D1D1D3"/>
<path d="M176.372 36.9829H8.34375V41.1442H176.372V36.9829Z" fill="#D1D1D3"/>
<path d="M184.289 8.34912H180.821V32.8585H184.289V8.34912Z" fill="#D1D1D3"/>
<path d="M180.549 32.8159H176.377V36.9825H180.549V32.8159Z" fill="#D1D1D3"/>
<path d="M180.517 4.1665H176.345V8.34907H180.517V4.1665Z" fill="#D1D1D3"/>
<path d="M176.345 0H8.34375V4.1666H176.345V0Z" fill="#D1D1D3"/>
<path d="M8.34377 4.2998H4.17188V8.46637H8.34377V4.2998Z" fill="#D1D1D3"/>
<path d="M4.17193 8.46631H0V32.8052H4.17193V8.46631Z" fill="#D1D1D3"/>
</svg>
