<svg width="1034" height="231" viewBox="0 0 1034 231" fill="none" xmlns="http://www.w3.org/2000/svg">
<path d="M1016.24 45.8881L1012.63 183.404L989.158 184.181V214.255H46.8159V184.062H19.9106C21.0466 138.064 22.1927 92.0258 23.3486 45.948H46.7862V13.9606H989.128V45.7985L1016.24 45.8881Z" fill="#FF8D00"/>
<g opacity="0.26">
<path opacity="0.26" d="M46.8451 45.9777H23.4077V67.7709H46.8451V45.9777Z" fill="white"/>
<path opacity="0.26" d="M94.9155 24.1245H46.8447V45.9775H94.9155V24.1245Z" fill="white"/>
</g>
<path opacity="0.38" d="M46.8159 157.814H19.9106V184.122H46.8159V157.814Z" fill="black"/>
<path opacity="0.38" d="M989.576 184.121H46.8154V209.024H989.576V184.121Z" fill="black"/>
<path d="M46.8152 184.121H23.4077V207.499H46.8152V184.121Z" fill="#D1D1D3"/>
<path d="M989.576 207.5H46.8154V230.848H989.576V207.5Z" fill="#D1D1D3"/>
<path d="M1034 46.8448H1014.54V184.361H1034V46.8448Z" fill="#D1D1D3"/>
<path d="M1013.01 184.121H989.607V207.499H1013.01V184.121Z" fill="#D1D1D3"/>
<path d="M1012.83 23.3771H989.426V46.8444H1012.83V23.3771Z" fill="#D1D1D3"/>
<path d="M989.427 0H46.8154V23.3777H989.427V0Z" fill="#D1D1D3"/>
<path d="M46.8152 24.1246H23.4077V47.5021H46.8152V24.1246Z" fill="#D1D1D3"/>
<path d="M23.4076 47.5017H0V184.061H23.4076V47.5017Z" fill="#D1D1D3"/>
</svg>
