<svg width="407" height="97" viewBox="0 0 407 97" fill="none" xmlns="http://www.w3.org/2000/svg">
<path opacity="0.7" d="M8.19995 11.25V62.09H16.43V67.74H339.56C339.887 71.5 340.22 75.2533 340.56 79H356.49V84.63L362.57 85.74C363.41 87.5333 364.247 89.3167 365.08 91.09H382.21V84.63H373.65V79H365.08V67.74H399.38V5.64999H16.43V11.25H8.19995Z" fill="white"/>
<path d="M356.73 90.43H364.93V84.64H356.73V90.43Z" fill="#DEDEDE"/>
<path d="M364.93 96.05H373.13V90.42H364.93V96.05Z" fill="#DEDEDE"/>
<path d="M364.93 79.01H373.13V73.38H364.93V79.01Z" fill="#DEDEDE"/>
<path d="M373.2 84.64H381.4V79.01H373.2V84.64Z" fill="#DEDEDE"/>
<path d="M381.49 90.42H389.69V84.79H381.49V90.42Z" fill="#DEDEDE"/>
<path d="M372.54 96.05H381.4V90.42H372.54V96.05Z" fill="#DEDEDE"/>
<path d="M380.66 96.05H391.45V90.42H380.66V96.05Z" fill="#DEDEDE"/>
<path d="M389.86 96.05H398.06V90.42H389.86V96.05Z" fill="#DEDEDE"/>
<path d="M389.68 67.74H397.88V62.11H389.68V67.74Z" fill="#DEDEDE"/>
<path d="M364.92 73.38H389.68V67.75H364.92V73.38Z" fill="#DEDEDE"/>
<path d="M389.68 11.28L397.88 11.28V5.65L389.68 5.65V11.28Z" fill="#DEDEDE"/>
<path d="M348.52 84.79H356.72V79H348.52V84.79Z" fill="#DEDEDE"/>
<path d="M8.1999 67.72H16.3999V62.09H8.1999V67.72Z" fill="#DEDEDE"/>
<path d="M8.1999 11.25L16.3999 11.25V5.62L8.1999 5.62V11.25Z" fill="#DEDEDE"/>
<path d="M-4.86374e-05 62.09H8.19995L8.19995 11.26H-4.86374e-05L-4.86374e-05 62.09Z" fill="#DEDEDE"/>
<path d="M397.88 62.11H406.08V11.28H397.88V62.11Z" fill="#DEDEDE"/>
<path d="M340.33 79.16H348.53V73.53H340.33V79.16Z" fill="#DEDEDE"/>
<path d="M340.32 67.74H28.3401V73.37H340.32V67.74Z" fill="#DEDEDE"/>
<path d="M28.3399 67.72H16.4099V73.35H28.3399V67.72Z" fill="#DEDEDE"/>
<path d="M381.34 0.0200043H20V5.65H381.34V0.0200043Z" fill="#DEDEDE"/>
<path d="M28.3399 0H16.4099V5.63H28.3399V0Z" fill="#DEDEDE"/>
<path d="M17.25 31.25V29H19.5V31.25H17.25ZM26.25 47H24H21.75H19.5V44.75H21.75H24H26.25V42.5V40.25V38H24V35.75H26.25V33.5V31.25V29H24H21.75H19.5V26.75H21.75H24H26.25H28.5V29H30.75V31.25V33.5V35.75H28.5V38H30.75V40.25V42.5V44.75H28.5V47H26.25ZM19.5 44.75H17.25V42.5H19.5V44.75ZM35.25 35.75V33.5H37.5V35.75H35.25ZM46.5 47H44.25H42H39.75H37.5V44.75H35.25V42.5V40.25H37.5V38H39.75H42H44.25V35.75V33.5H42H39.75H37.5V31.25H39.75H42H44.25H46.5V33.5H48.75V35.75V38V40.25V42.5V44.75V47H46.5ZM42 44.75H44.25V42.5V40.25H42H39.75V42.5V44.75H42ZM64.5 47H62.25V44.75H60V42.5H57.75V44.75V47H55.5H53.25V44.75V42.5V40.25V38V35.75V33.5V31.25H55.5H57.75V33.5V35.75H60V33.5H62.25V31.25H64.5H66.75V33.5H64.5V35.75H62.25V38H60V40.25H62.25V42.5H64.5V44.75H66.75V47H64.5ZM71.25 35.75V33.5H73.5V35.75H71.25ZM82.5 47H80.25H78H75.75H73.5V44.75H71.25V42.5V40.25H73.5V38H75.75H78H80.25V35.75V33.5H78H75.75H73.5V31.25H75.75H78H80.25H82.5V33.5H84.75V35.75V38V40.25V42.5V44.75V47H82.5ZM78 44.75H80.25V42.5V40.25H78H75.75V42.5V44.75H78ZM89.25 35.75V33.5H91.5V35.75H89.25ZM96 47H93.75H91.5V44.75H93.75H96V42.5V40.25H93.75V38H96V35.75V33.5H93.75H91.5V31.25H93.75H96H98.25V33.5H100.5V35.75V38H98.25V40.25H100.5V42.5V44.75H98.25V47H96ZM91.5 44.75H89.25V42.5H91.5V44.75ZM105 35.75V33.5H107.25V35.75H105ZM116.25 47H114H111.75H109.5H107.25V44.75H105V42.5V40.25H107.25V38H109.5H111.75H114V35.75V33.5H111.75H109.5H107.25V31.25H109.5H111.75H114H116.25V33.5H118.5V35.75V38V40.25V42.5V44.75V47H116.25ZM111.75 44.75H114V42.5V40.25H111.75H109.5V42.5V44.75H111.75ZM129.75 47H127.5V44.75V42.5V40.25V38V35.75V33.5H125.25H123V31.25H125.25H127.5H129.75H132H134.25H136.5V33.5H134.25H132V35.75V38V40.25V42.5V44.75V47H129.75ZM147.75 47H145.5H143.25H141V44.75V42.5V40.25V38V35.75V33.5V31.25H143.25H145.5V33.5V35.75V38H147.75H150V40.25H152.25V42.5V44.75H150V47H147.75ZM147.75 44.75V42.5V40.25H145.5V42.5V44.75H147.75ZM179.25 47H177V44.75H174.75V42.5H172.5V44.75V47H170.25H168V44.75V42.5V40.25V38V35.75V33.5V31.25H170.25H172.5V33.5V35.75H174.75V33.5H177V31.25H179.25H181.5V33.5H179.25V35.75H177V38H174.75V40.25H177V42.5H179.25V44.75H181.5V47H179.25ZM195 47H192.75H190.5H188.25V44.75H186V42.5V40.25V38V35.75V33.5H188.25V31.25H190.5H192.75H195H197.25V33.5H199.5V35.75V38V40.25V42.5V44.75H197.25V47H195ZM192.75 44.75H195V42.5V40.25V38V35.75V33.5H192.75H190.5V35.75V38V40.25V42.5V44.75H192.75ZM215.25 47H213V44.75V42.5V40.25H210.75H208.5V42.5V44.75V47H206.25H204V44.75V42.5V40.25V38V35.75V33.5V31.25H206.25H208.5V33.5V35.75V38H210.75H213V35.75V33.5V31.25H215.25H217.5V33.5V35.75V38V40.25V42.5V44.75V47H215.25ZM231 35.75V33.5H233.25V35.75H231ZM228.75 44.75H231V47H228.75H226.5H224.25V44.75H222V42.5V40.25V38V35.75V33.5H224.25V31.25H226.5H228.75H231V33.5H228.75H226.5V35.75V38V40.25V42.5V44.75H228.75ZM231 44.75V42.5H233.25V44.75H231ZM246.75 53.75H244.5H242.25H240V51.5H242.25H244.5H246.75V49.25V47H244.5H242.25H240V44.75H237.75V42.5V40.25V38V35.75V33.5V31.25H240H242.25V33.5V35.75V38V40.25V42.5V44.75H244.5H246.75V42.5V40.25V38V35.75V33.5V31.25H249H251.25V33.5V35.75V38V40.25V42.5V44.75V47V49.25V51.5H249V53.75H246.75ZM240 51.5H237.75V49.25H240V51.5ZM267 47H264.75V44.75V42.5V40.25V38V35.75V33.5H262.5H260.25V35.75V38V40.25V42.5V44.75V47H258H255.75V44.75V42.5V40.25V38V35.75H258V33.5H260.25V31.25H262.5H264.75H267H269.25V33.5V35.75V38V40.25V42.5V44.75V47H267ZM280.5 47H278.25H276H273.75V44.75V42.5V40.25V38V35.75V33.5V31.25H276H278.25V33.5V35.75V38H280.5H282.75V40.25H285V42.5V44.75H282.75V47H280.5ZM280.5 44.75V42.5V40.25H278.25V42.5V44.75H280.5ZM296.25 47H294V44.75V42.5V40.25V38V35.75V33.5H291.75H289.5V31.25H291.75H294H296.25H298.5H300.75H303V33.5H300.75H298.5V35.75V38V40.25V42.5V44.75V47H296.25ZM307.5 35.75V33.5H309.75V35.75H307.5ZM318.75 47H316.5H314.25H312H309.75V44.75H307.5V42.5V40.25H309.75V38H312H314.25H316.5V35.75V33.5H314.25H312H309.75V31.25H312H314.25H316.5H318.75V33.5H321V35.75V38V40.25V42.5V44.75V47H318.75ZM314.25 44.75H316.5V42.5V40.25H314.25H312V42.5V44.75H314.25ZM339 51.5H336.75V49.25V47H334.5H332.25H330H327.75H325.5V44.75V42.5V40.25V38V35.75V33.5V31.25H327.75H330V33.5V35.75V38V40.25V42.5V44.75H332.25H334.5V42.5V40.25V38V35.75V33.5V31.25H336.75H339V33.5V35.75V38V40.25V42.5V44.75H341.25V47V49.25V51.5H339ZM357 47H354.75H352.5H350.25H348V44.75H345.75V42.5V40.25V38V35.75V33.5V31.25H348H350.25V33.5V35.75V38V40.25V42.5V44.75H352.5H354.75V42.5V40.25V38V35.75V33.5V31.25H357H359.25V33.5V35.75V38V40.25V42.5V44.75V47H357ZM379.5 47H377.25H375H372.75V44.75H370.5V42.5V40.25H368.25V42.5V44.75V47H366H363.75V44.75V42.5V40.25V38V35.75V33.5V31.25H366H368.25V33.5V35.75V38H370.5V35.75V33.5H372.75V31.25H375H377.25H379.5H381.75V33.5H384V35.75V38V40.25V42.5V44.75H381.75V47H379.5ZM377.25 44.75H379.5V42.5V40.25V38V35.75V33.5H377.25H375V35.75V38V40.25V42.5V44.75H377.25Z" fill="black"/>
</svg>
