<svg width="11" height="10" viewBox="0 0 11 10" fill="none" xmlns="http://www.w3.org/2000/svg">
<path d="M9.73452 1.599V8.7394H9.33225V9.17825H8.83093V9.62014H1.75148V9.17825H1.32635V8.7394H0.924072V1.599H1.28825V1.15863H1.7591V0.718262H8.83855V1.15863H9.29415V1.599H9.73452Z" fill="#023A6D"/>
<path d="M10.1291 1.59876V8.73916H9.72678V9.178H9.22546V9.6199H2.14754V9.178H1.72088V8.73916H1.3186V1.59876H1.68279V1.15839H2.15363V0.718018H9.23308V1.15839H9.68869V1.59876H10.1291Z" fill="#195498"/>
<path d="M5.50928 9.69019H4.69678V8.87769V8.06519V7.25269V6.44019V5.62769V4.81519H3.88428V4.00269H4.69678V3.19019H5.50928V2.37769H6.32178H7.13428H7.94678V3.19019H7.13428H6.32178V4.00269H7.13428V4.81519H6.32178V5.62769V6.44019V7.25269V8.06519V8.87769V9.69019H5.50928Z" fill="#F7F7F7"/>
</svg>
