<svg width="64" height="30" viewBox="0 0 64 30" fill="none" xmlns="http://www.w3.org/2000/svg">
<path d="M52.4664 18.4354V16.3051V13.9256H45.837L47.9566 11.6714L52.3411 7.2869V0.408405H45.5771L43.3338 2.65173V0.408405H40.9543L38.8239 2.65173L36.5682 4.90743V0.408405H34.1888L32.0584 2.65173V0.408405H25.3067L23.051 2.65173V0.408405H16.1617L14.0313 2.65173H11.7772V0.408405L4.95594 0.340332L0.51416 4.90743V29.6985H56.9747L61.4846 25.3139L63.7403 23.0582V16.1921H61.4846V13.9256H56.7256L52.4664 18.4354Z" fill="#000008"/>
<path d="M11.7772 4.90587H13.8055V2.87915H11.7772V4.90587ZM20.5586 5.13639H18.5304V7.16157H20.5586V5.13639ZM5.01318 10.6519V11.6714H7.04146V9.64315H5.01318V10.6519ZM7.26734 10.6519V11.6714H9.29561V9.64315H7.26734V10.6519ZM9.52149 10.6519V11.6714H11.5498V9.64315H9.52149V10.6519ZM47.6054 10.6519V9.64315H45.5771V11.6714H47.6054V10.6519ZM40.8398 10.6519V9.64315H38.8115V11.6714H40.8398V10.6519ZM38.5857 10.6519V9.64315H36.562V11.6714H38.5903L38.5857 10.6519ZM31.8217 10.6519V9.64315H29.8104V11.6714H31.8217V10.6519ZM29.5783 10.6519V9.64315H27.5501V11.6714H29.5783V10.6519ZM27.3226 10.6519V9.64315H25.2944V11.6714H27.3226V10.6519ZM22.8128 10.6519V9.64315H20.7814V11.6714H22.8097L22.8128 10.6519ZM20.5586 10.6519V9.64315H18.5304V11.6714H20.5586V10.6519ZM18.3029 10.6519V9.64315H16.2747V11.6714H18.306L18.3029 10.6519ZM18.5304 4.90587H20.5586V2.87915H18.5304V4.90587ZM18.5304 2.65172H20.5586V0.634277H18.5304V2.65172ZM20.5586 7.38745H18.5304V9.41573H20.5586V7.38745ZM16.2747 2.65172H18.306V0.634277H16.2747V2.65172ZM20.7814 0.634277V2.64553H22.8097V0.634277H20.7814ZM47.6054 5.13639H45.5771V7.16157H47.6054V5.13639ZM45.5771 4.90897H47.6054V2.87915H45.5771V4.90897ZM45.5771 2.65481H47.6054V0.634277H45.5771V2.65481ZM47.6054 7.39055H45.5771V9.41573H47.6054V7.39055ZM47.8312 5.13639V7.16157H49.8425V5.13639H47.8312ZM47.8312 0.637372V2.64863H49.8425V0.634277L47.8312 0.637372ZM50.0746 0.637372V2.64863H52.1028V0.634277L50.0746 0.637372ZM52.1028 2.88224H50.0746V4.90897H52.1028V2.88224ZM50.0746 5.13639V7.16157H52.1028V5.13639H50.0746ZM29.8073 4.90897H31.8186V2.87915H29.8073V4.90897ZM29.8073 2.65481H31.8186V0.634277H29.8073V2.65481ZM27.5501 7.16157H29.5783V5.13639H27.5501V7.16157ZM25.2944 9.41573H27.3226V7.38745H25.2944V9.41573ZM25.2944 2.65172H27.3226V0.634277H25.2944V2.65172ZM27.5501 0.640466V2.65172H29.5783V0.634277L27.5501 0.640466ZM36.3315 5.13639H34.3032V7.16157H36.3315V5.13639ZM34.3032 4.90587H36.3315V2.87915H34.3032V4.90587ZM34.3032 2.65172H36.3315V0.634277H34.3032V2.65172ZM36.3315 7.38745H34.3032V9.41573H36.3315V7.38745ZM43.0955 5.13639H41.0672V7.16157H43.0955V5.13639ZM41.0672 4.90897H43.0955V2.87915H41.0672V4.90897ZM41.0672 2.65481H43.0955V0.634277H41.0672V2.65481ZM43.0955 7.39055H41.0672V9.41573H43.0955V7.39055ZM7.04765 2.88224H5.01318V4.90897H7.04146L7.04765 2.88224ZM5.01318 2.65172H7.04146V0.634277H5.01318V2.65172ZM7.26734 0.640466V2.65172H9.29561V0.634277L7.26734 0.640466ZM7.04146 5.13639H5.01318V7.16157H7.04146V5.13639ZM7.04146 7.39055H5.01318V9.41573H7.04146V7.39055ZM7.26734 5.13639V7.16157H9.29561V5.13639H7.26734ZM9.52149 0.634277V2.64553H11.5498V0.634277H9.52149ZM9.52149 5.1333V7.16157H11.5498V5.13639L9.52149 5.1333ZM11.7772 9.41573H13.8055V7.38745H11.7772V9.41573Z" fill="#F5F108"/>
<path d="M31.9346 20.917H29.9094V22.9452H31.9377L31.9346 20.917ZM7.01207 16.4071H4.98999V18.4416H7.01207V16.4071ZM4.98999 24.1798V25.1994H7.01207V23.1711H4.98999V24.1798ZM7.24414 24.1798V25.1994H9.27242V23.1711H7.24414V24.1798ZM9.49984 24.1798V25.1994H11.5281V23.1711H9.49984V24.1798ZM61.2247 24.1798V23.1711H59.1964V25.1994H61.2247V24.1798ZM58.969 24.1798V23.1711H56.9422V25.1994H58.969V24.1798ZM52.205 24.1798V23.1711H50.1937V25.1994H52.205V24.1798ZM49.9616 24.1798V23.1711H47.9334V25.1994H49.9616V24.1798ZM47.7075 24.1798V23.1711H45.6792V25.1994H47.7013L47.7075 24.1798ZM40.9419 24.1798V23.1711H38.9137V25.1994H40.9419V24.1798ZM38.6878 24.1798V23.1711H36.6595V25.1994H38.6878V24.1798ZM36.4321 24.1798V23.1711H34.4038V25.1994H36.4321V24.1798ZM29.6789 24.1798V23.1711H27.6506V25.1994H29.6789V24.1798ZM27.4248 24.1798V23.1711H25.3965V25.1994H27.4248V24.1798ZM18.2813 24.1798V23.1711H16.253V25.1994H18.2813V24.1798ZM4.98999 16.1812H7.01207V14.153H4.98999V16.1812ZM7.24414 14.153V16.1812H9.27242V14.153H7.24414ZM7.01207 18.6628H4.98999V20.6911H7.01207V18.6628ZM9.48747 22.9452H11.5281V20.917H9.49984L9.48747 22.9452ZM9.48747 20.6911H11.5281V18.6628H9.49984L9.48747 20.6911ZM9.48747 14.153V16.1812H11.5281V14.153H9.48747ZM7.24414 18.6628V20.6911H9.27242V18.6628H7.24414ZM18.2813 18.6628H16.253V20.6911H18.2813V18.6628ZM16.253 18.4416H18.2813V16.4071H16.253V18.4416ZM16.253 16.1874H18.2813V14.153H16.253V16.1874ZM18.2813 20.917H16.253V22.9452H18.2813V20.917ZM14.0097 16.1812H16.0209V14.153H14.0097V16.1812ZM18.5072 14.153V16.1812H20.5354V14.153H18.5072ZM49.9616 18.6628H47.9334V20.6911H49.9616V18.6628ZM47.9334 18.4416H49.9616V16.4071H47.9334V18.4416ZM47.9334 16.1874H49.9616V14.153H47.9334V16.1874ZM49.9616 20.917H47.9334V22.9452H49.9616V20.917ZM45.6792 16.1812H47.7013V14.153H45.6792V16.1812ZM50.1891 14.153V16.1812H52.2003V14.153H50.1891ZM36.4321 16.4071H34.4038V18.4416H36.4321V16.4071ZM34.4038 16.1812H36.4321V14.153H34.4038V16.1812ZM36.6595 14.153V16.1812H38.6878V14.153H36.6595ZM36.4321 18.6628H34.4038V20.6911H36.4321V18.6628ZM36.4321 20.917H34.4038V22.9452H36.4321V20.917ZM38.9075 14.153V16.1812H40.9358V14.153H38.9075ZM43.1915 18.6628H41.1694V20.6911H43.1976L43.1915 18.6628ZM41.1694 18.4416H43.1976V16.4071H41.1694V18.4416ZM43.1976 20.917H41.1694V22.9452H43.1976V20.917ZM56.7148 18.6628H54.6865V20.6911H56.7148V18.6628ZM54.6865 18.4416H56.7148V16.4071H54.6865V18.4416ZM56.7148 20.917H54.6865V22.9452H56.7148V20.917ZM56.9422 16.1812H58.969V14.153H56.9422V16.1812ZM59.1964 14.153V16.1812H61.2247V14.153H59.1964ZM63.4819 18.6628H61.4506V20.6911H63.4819V18.6628ZM61.4506 18.4416H63.4819V16.4071H61.4506V18.4416ZM63.4819 20.917H61.4506V22.9452H63.4819V20.917ZM25.1706 18.6628H23.1423V20.6911H25.1706V18.6628ZM23.1423 18.4416H25.1706V16.4071H23.1423V18.4416ZM23.1423 16.1874H25.1706V14.153H23.1423V16.1874ZM25.1706 20.917H23.1423V22.9452H25.1706V20.917ZM31.9346 18.6628H29.9094V20.6911H31.9377L31.9346 18.6628ZM29.9094 18.4416H31.9377V16.4071H29.9094V18.4416ZM29.9094 16.1874H31.9377V14.153H29.9094V16.1874Z" fill="#F78120"/>
</svg>
