<svg width="104" height="77" viewBox="0 0 104 77" fill="none" xmlns="http://www.w3.org/2000/svg">
<path d="M97 16.3731V62.2908L91.245 63.4498L90.847 70.0001H14.1637V62.5125H7C7.30247 47.0066 7.60761 31.4872 7.91538 15.9543H14.1558L15.5 7L90.7437 5.17139V8.52728L97 16.3731Z" fill="#FF8D00"/>
<g opacity="0.26">
<path opacity="0.26" d="M15.67 15.3799H7.83008V22.6699H15.67V15.3799Z" fill="white"/>
<path opacity="0.26" d="M31.7499 8.06982H15.6699V15.3798H31.7499V8.06982Z" fill="white"/>
</g>
<path opacity="0.38" d="M15.6602 52.79H6.66016V61.59H15.6602V52.79Z" fill="black"/>
<path opacity="0.38" d="M90 61H15V69L90 70V61Z" fill="black"/>
<path d="M16 61H7V69H16V61Z" fill="#D1D1D3"/>
<path d="M91 69H16V77H91V69Z" fill="#D1D1D3"/>
<path d="M103.51 15H97V61H103.51V15Z" fill="#D1D1D3"/>
<path d="M98 61H90V69H98V61Z" fill="#D1D1D3"/>
<path d="M98 8H90V16H98V8Z" fill="#D1D1D3"/>
<path d="M91 0H15V8H91V0Z" fill="#D1D1D3"/>
<path d="M15.66 8.06982H7.83008V15.8898H15.66V8.06982Z" fill="#D1D1D3"/>
<path d="M7.83002 15.8899H0V61.5699H7.83002V15.8899Z" fill="#D1D1D3"/>
<path d="M42.875 47H40.5H38.125H35.75V44.625H33.375V42.25V39.875V37.5V35.125V32.75V30.375V28H35.75V25.625H38.125H40.5H42.875H45.25V28H47.625V30.375V32.75V35.125V37.5V39.875V42.25V44.625H45.25V47H42.875ZM40.5 44.625H42.875V42.25V39.875V37.5V35.125V32.75V30.375V28H40.5H38.125V30.375V32.75V35.125V37.5V39.875V42.25V44.625H40.5ZM66.625 47H64.25V44.625H61.875V42.25H59.5V39.875H57.125V42.25V44.625V47H54.75H52.375V44.625V42.25V39.875V37.5V35.125V32.75V30.375V28V25.625H54.75H57.125V28V30.375V32.75H59.5V30.375H61.875V28H64.25V25.625H66.625H69V28H66.625V30.375H64.25V32.75H61.875V35.125H59.5V37.5H61.875V39.875H64.25V42.25H66.625V44.625H69V47H66.625Z" fill="white"/>
</svg>
