<svg width="22" height="20" viewBox="0 0 22 20" fill="none" xmlns="http://www.w3.org/2000/svg">
<path d="M20.5405 2.37357V18.0499H19.6432V19.0125H18.5215V19.9823H2.70591V19.0125H1.75623V18.0499H0.858887V2.37357H1.67397V1.40736H2.72834V0.441162H18.5439V1.40736H19.5534V2.37357H20.5405Z" fill="#076189"/>
<path d="M21.2883 2.37357V18.0499H20.391V19.0125H19.2693V19.9823H3.47615V19.0125H2.50403V18.0499H1.60669V2.37357H2.42177V1.40736H3.47615V0.441162H19.2917V1.40736H20.3012V2.37357H21.2883Z" fill="#00A3FD"/>
<path d="M8.13472 15.9257H7.3645V16.8304H8.13472V15.9257Z" fill="#F7F8FA"/>
<path d="M8.56856 15.4987H7.79834V16.4034H8.56856V15.4987Z" fill="#F7F8FA"/>
<path d="M8.95369 15.097H8.18347V16.0017H8.95369V15.097Z" fill="#F7F8FA"/>
<path d="M9.4023 14.7098H8.63208V15.6145H9.4023V14.7098Z" fill="#F7F8FA"/>
<path d="M9.83223 14.2864H9.06201V15.1911H9.83223V14.2864Z" fill="#F7F8FA"/>
<path d="M10.2136 14.2864H9.44336V15.1911H10.2136V14.2864Z" fill="#F7F8FA"/>
<path d="M10.6585 13.9065H9.88831V14.8112H10.6585V13.9065Z" fill="#F7F8FA"/>
<path d="M11.0699 13.4867H10.2997V14.3914H11.0699V13.4867Z" fill="#F7F8FA"/>
<path d="M11.713 13.1176H10.9427V14.0223H11.713V13.1176Z" fill="#F7F8FA"/>
<path d="M12.2253 13.5337H11.4551V14.4384H12.2253V13.5337Z" fill="#F7F8FA"/>
<path d="M12.6477 13.9065H11.8774V14.8112H12.6477V13.9065Z" fill="#F7F8FA"/>
<path d="M13.0665 14.3299H12.2963V15.2345H13.0665V14.3299Z" fill="#F7F8FA"/>
<path d="M13.631 14.3878H12.715V15.6109H13.631V14.3878Z" fill="#F7F8FA"/>
<path d="M12.6851 13.1863H11.769V14.4095H12.6851V13.1863Z" fill="#F7F8FA"/>
<path d="M13.8703 15.097H13.1001V16.0017H13.8703V15.097Z" fill="#F7F8FA"/>
<path d="M7.74971 15.097H6.97949V16.0669H7.74971V15.097Z" fill="#F7F8FA"/>
<path d="M12.2962 12.3939H6.76257V13.9101H12.2962V12.3939Z" fill="#F7F8FA"/>
<path d="M7.74971 14.5615H6.97949V15.3069H7.74971V14.5615Z" fill="#F7F8FA"/>
<path d="M7.27485 14.0657H6.50464V14.8112H7.27485V14.0657Z" fill="#F7F8FA"/>
<path d="M7.27485 13.2189H6.50464V14.0693H7.27485V13.2189Z" fill="#F7F8FA"/>
<path d="M6.88972 11.1743H6.11951V13.2189H6.88972V11.1743Z" fill="#F7F8FA"/>
<path d="M6.50459 9.564H5.73438V11.1743H6.50459V9.564Z" fill="#F7F8FA"/>
<path d="M6.05977 7.99708H5.28955V9.60742H6.05977V7.99708Z" fill="#F7F8FA"/>
<path d="M5.67463 6.27092H4.90442V7.99344H5.67463V6.27092Z" fill="#F7F8FA"/>
<path d="M5.2895 4.53395H4.51929V6.27456H5.2895V4.53395Z" fill="#F7F8FA"/>
<path d="M6.05977 4.81981H5.28955V6.56042H6.05977V4.81981Z" fill="#F7F8FA"/>
<path d="M7.31966 5.20341H6.05591V6.73051H7.31966V5.20341Z" fill="#F7F8FA"/>
<path d="M8.46761 5.7607H7.20386V7.28781H8.46761V5.7607Z" fill="#F7F8FA"/>
<path d="M8.58712 5.60872H7.32336V7.13583H8.58712V5.60872Z" fill="#F7F8FA"/>
<path d="M9.40975 6.01761H8.146V6.97657H9.40975V6.01761Z" fill="#F7F8FA"/>
<path d="M10.6511 6.41569H9.38733V7.37465H10.6511V6.41569Z" fill="#F7F8FA"/>
<path d="M10.2546 6.89698H8.68054V8.01879H10.2546V6.89698Z" fill="#F7F8FA"/>
<path d="M11.7317 7.28417H10.1576V8.40598H11.7317V7.28417Z" fill="#F7F8FA"/>
<path d="M11.0774 7.4398H9.8136V8.39876H11.0774V7.4398Z" fill="#F7F8FA"/>
<path d="M11.5149 7.8451H10.2511V8.80407H11.5149V7.8451Z" fill="#F7F8FA"/>
<path d="M12.5916 8.01517H11.3279V8.97413H12.5916V8.01517Z" fill="#F7F8FA"/>
<path d="M11.9148 8.28295H10.651V9.24192H11.9148V8.28295Z" fill="#F7F8FA"/>
<path d="M13.2233 8.32638H11.9596V9.28534H13.2233V8.32638Z" fill="#F7F8FA"/>
<path d="M13.8553 8.38791H12.5916V9.34687H13.8553V8.38791Z" fill="#F7F8FA"/>
<path d="M14.3789 8.6955H13.1151V9.65446H14.3789V8.6955Z" fill="#F7F8FA"/>
<path d="M15.119 9.05375H13.8552V10.0127H15.119V9.05375Z" fill="#F7F8FA"/>
<path d="M15.8481 9.17679H14.5844V10.1358H15.8481V9.17679Z" fill="#F7F8FA"/>
<path d="M16.4801 9.65446H15.2163V10.6134H16.4801V9.65446Z" fill="#F7F8FA"/>
<path d="M12.715 8.6412H11.4513V9.60017H12.715V8.6412Z" fill="#F7F8FA"/>
<path d="M13.5338 9.05375H12.27V10.0127H13.5338V9.05375Z" fill="#F7F8FA"/>
<path d="M13.9787 9.43011H12.715V10.3891H13.9787V9.43011Z" fill="#F7F8FA"/>
<path d="M15.8481 9.91138H14.5844V10.8703H15.8481V9.91138Z" fill="#F7F8FA"/>
<path d="M16.4801 9.92225H15.2163V10.8812H16.4801V9.92225Z" fill="#F7F8FA"/>
<path d="M17.1119 9.65446H15.8481V10.6134H17.1119V9.65446Z" fill="#F7F8FA"/>
<path d="M17.9382 9.65446H16.6744V10.6134H17.9382V9.65446Z" fill="#F7F8FA"/>
<path d="M15.2163 10.2588H13.9525V11.2178H15.2163V10.2588Z" fill="#F7F8FA"/>
<path d="M14.7976 9.82816H13.5338V10.7871H14.7976V9.82816Z" fill="#F7F8FA"/>
<path d="M17.3027 10.3565H16.0389V11.3155H17.3027V10.3565Z" fill="#F7F8FA"/>
<path d="M11.4511 6.81012H10.1874V7.76908H11.4511V6.81012Z" fill="#F7F8FA"/>
<path d="M12.715 7.2082H11.4513V8.16716H12.715V7.2082Z" fill="#F7F8FA"/>
<path d="M13.5338 7.60625H12.27V8.56521H13.5338V7.60625Z" fill="#F7F8FA"/>
<path d="M14.7526 8.01517H13.4889V8.97413H14.7526V8.01517Z" fill="#F7F8FA"/>
<path d="M15.6164 8.41684H14.3527V9.3758H15.6164V8.41684Z" fill="#F7F8FA"/>
<path d="M16.5734 8.91985H15.3097V9.87882H16.5734V8.91985Z" fill="#F7F8FA"/>
<path d="M16.7043 8.86919H15.4406V9.82815H16.7043V8.86919Z" fill="#F7F8FA"/>
<path d="M16.8241 8.80405H15.5603V9.76302H16.8241V8.80405Z" fill="#F7F8FA"/>
<path d="M18.0615 9.21659H16.7977V10.1756H18.0615V9.21659Z" fill="#F7F8FA"/>
<path d="M18.9178 9.62913H17.6541V10.5881H18.9178V9.62913Z" fill="#F7F8FA"/>
<path d="M18.9178 9.59656H17.6541V10.5555H18.9178V9.59656Z" fill="#F7F8FA"/>
<path d="M18.9178 9.82816H17.6541V10.7871H18.9178V9.82816Z" fill="#F7F8FA"/>
<path d="M17.6503 10.3095H16.3866V11.2684H17.6503V10.3095Z" fill="#F7F8FA"/>
<path d="M16.4165 10.6568H15.1527V11.6158H16.4165V10.6568Z" fill="#F7F8FA"/>
<path d="M15.1528 10.6967H14.3527V12.839H15.1528V10.6967Z" fill="#F7F8FA"/>
<path d="M14.7526 12.5205H13.9525V14.0223H14.7526V12.5205Z" fill="#F7F8FA"/>
<path d="M14.3526 13.9969H13.5525V15.9981H14.3526V13.9969Z" fill="#F7F8FA"/>
<path d="M13.5524 12.3866H12.7523V14.3878H13.5524V12.3866Z" fill="#F7F8FA"/>
<path d="M13.1149 11.9849H12.3148V14.3878H13.1149V11.9849Z" fill="#F7F8FA"/>
<path d="M10.681 11.6158H7.23376V14.2864H10.681V11.6158Z" fill="#F7F8FA"/>
<path d="M9.11818 12.4626H7.23376V14.9993H9.11818V12.4626Z" fill="#F7F8FA"/>
<path d="M8.62832 13.389H7.18884V15.9257H8.62832V13.389Z" fill="#F7F8FA"/>
<path d="M8.08243 10.6279H6.64294V13.1646H8.08243V10.6279Z" fill="#F7F8FA"/>
<path d="M7.60757 8.98861H6.16809V11.5253H7.60757V8.98861Z" fill="#F7F8FA"/>
<path d="M7.36087 7.53387H5.92139V10.0706H7.36087V7.53387Z" fill="#F7F8FA"/>
<path d="M6.97952 5.93801H5.54004V8.47475H6.97952V5.93801Z" fill="#F7F8FA"/>
<path d="M7.9927 6.2673H6.55322V8.80404H7.9927V6.2673Z" fill="#F7F8FA"/>
<path d="M8.85269 6.10809H7.41321V8.64483H8.85269V6.10809Z" fill="#F7F8FA"/>
<path d="M12.6962 11.6411H11.8961V13.6423H12.6962V11.6411Z" fill="#F7F8FA"/>
<path d="M12.2961 11.196H11.496V13.1972H12.2961V11.196Z" fill="#F7F8FA"/>
<path d="M11.8961 10.8342H11.0959V12.8353H11.8961V10.8342Z" fill="#F7F8FA"/>
<path d="M11.4661 10.3927H10.666V12.3938H11.4661V10.3927Z" fill="#F7F8FA"/>
<path d="M11.0549 9.98376H10.2548V11.9849H11.0549V9.98376Z" fill="#F7F8FA"/>
<path d="M10.6137 9.6255H9.8136V11.6267H10.6137V9.6255Z" fill="#F7F8FA"/>
<path d="M10.2136 9.17679H9.41345V11.1779H10.2136V9.17679Z" fill="#F7F8FA"/>
<path d="M9.78365 8.76424H8.98352V10.7654H9.78365V8.76424Z" fill="#F7F8FA"/>
<path d="M9.38362 8.39875H8.5835V10.3999H9.38362V8.39875Z" fill="#F7F8FA"/>
<path d="M8.98726 7.69672H8.18713V9.69788H8.98726V7.69672Z" fill="#F7F8FA"/>
<path d="M8.63571 8.41684H7.08032V11.5253H8.63571V8.41684Z" fill="#F7F8FA"/>
<path d="M9.55563 10.1756H8.00024V13.2841H9.55563V10.1756Z" fill="#F7F8FA"/>
<path d="M10.124 10.2805H8.5686V13.389H10.124V10.2805Z" fill="#F7F8FA"/>
<path d="M13.9526 14.7822H13.5525V16.3781H13.9526V14.7822Z" fill="#F7F8FA"/>
<path d="M19.7404 10.0127H18.4767V10.3891H19.7404V10.0127Z" fill="#F7F8FA"/>
</svg>
