<svg width="25" height="24" viewBox="0 0 25 24" fill="none" xmlns="http://www.w3.org/2000/svg">
<path d="M23.1535 2.59718V21.6512H22.1168V22.8212H20.821V24H2.55024V22.8212H1.45313V21.6512H0.416489V2.59718H1.3581V1.4228H2.57616V0.248413H20.847V1.4228H22.0132V2.59718H23.1535Z" fill="#443C6D"/>
<path d="M24.0174 2.59717V21.6512H22.9807V22.8212H21.6849V24H3.44003V22.8212H2.31701V21.6512H1.28036V2.59717H2.22198V1.42279H3.44003V0.248405H21.7108V1.42279H22.8771V2.59717H24.0174Z" fill="#705CB5"/>
<path d="M6.93436 4.07066H6.03594V5.0647H6.93436V4.07066Z" fill="#FEFEFD"/>
<path d="M6.0878 4.53689H5.11163V5.53094H6.0878V4.53689Z" fill="#FEFEFD"/>
<path d="M5.56083 5.00752H4.66241V6.00157H5.56083V5.00752Z" fill="#FEFEFD"/>
<path d="M8.33383 5.46495H4.21318V9.21682H8.33383V5.46495Z" fill="#FEFEFD"/>
<path d="M4.62352 5.93999H3.7251V8.30195H4.62352V5.93999Z" fill="#FEFEFD"/>
<path d="M8.11354 6.40182H3.7251V8.76379H8.11354V6.40182Z" fill="#FEFEFD"/>
<path d="M5.1116 7.3343H4.21318V9.69626H5.1116V7.3343Z" fill="#FEFEFD"/>
<path d="M5.56083 8.30195H4.66241V10.6639H5.56083V8.30195Z" fill="#FEFEFD"/>
<path d="M6.01006 9.19045H5.11163V11.5524H6.01006V9.19045Z" fill="#FEFEFD"/>
<path d="M6.45917 10.1361H5.56075V12.4981H6.45917V10.1361Z" fill="#FEFEFD"/>
<path d="M6.93436 10.6023H6.03594V12.9643H6.93436V10.6023Z" fill="#FEFEFD"/>
<path d="M7.3836 11.5568H6.48518V13.9188H7.3836V11.5568Z" fill="#FEFEFD"/>
<path d="M7.83281 12.001H6.93439V14.363H7.83281V12.001Z" fill="#FEFEFD"/>
<path d="M8.28193 12.4805H7.38351V15.3263H8.28193V12.4805Z" fill="#FEFEFD"/>
<path d="M8.77012 14.2179H7.8717V15.3307H8.77012V14.2179Z" fill="#FEFEFD"/>
<path d="M8.77012 14.6709H7.8717V15.7837H8.77012V14.6709Z" fill="#FEFEFD"/>
<path d="M9.21934 15.1459H8.32092V16.2587H9.21934V15.1459Z" fill="#FEFEFD"/>
<path d="M9.70303 15.5946H8.80461V16.7074H9.70303V15.5946Z" fill="#FEFEFD"/>
<path d="M10.1523 16.0784H9.25383V17.1912H10.1523V16.0784Z" fill="#FEFEFD"/>
<path d="M10.6317 16.5446H9.70304V17.6574H10.6317V16.5446Z" fill="#FEFEFD"/>
<path d="M11.5301 17.0109H10.6317V18.1237H11.5301V17.0109Z" fill="#FEFEFD"/>
<path d="M11.9793 17.4639H11.0809V18.5767H11.9793V17.4639Z" fill="#FEFEFD"/>
<path d="M13.1542 17.9389H11.9793V19.0517H13.1542V17.9389Z" fill="#FEFEFD"/>
<path d="M13.8151 18.3964H12.4847V19.5092H13.8151V18.3964Z" fill="#FEFEFD"/>
<path d="M14.761 18.8978H13.3874V20.0106H14.761V18.8978Z" fill="#FEFEFD"/>
<path d="M15.2145 19.3596H14.316V20.4724H15.2145V19.3596Z" fill="#FEFEFD"/>
<path d="M16.2512 19.8171H15.2102V20.9299H16.2512V19.8171Z" fill="#FEFEFD"/>
<path d="M17.0459 20.2877H16.1475V21.4005H17.0459V20.2877Z" fill="#FEFEFD"/>
<path d="M17.966 20.2877H16.8343V21.4005H17.966V20.2877Z" fill="#FEFEFD"/>
<path d="M18.4713 19.8171H17.3396V20.9299H18.4713V19.8171Z" fill="#FEFEFD"/>
<path d="M18.9162 19.3596H17.7845V20.4724H18.9162V19.3596Z" fill="#FEFEFD"/>
<path d="M19.3697 18.889H18.238V20.0018H19.3697V18.889Z" fill="#FEFEFD"/>
<path d="M19.8319 18.4184H18.7002V19.5312H19.8319V18.4184Z" fill="#FEFEFD"/>
<path d="M20.2811 17.6574H19.1495V19.0649H20.2811V17.6574Z" fill="#FEFEFD"/>
<path d="M19.8319 17.1912H18.7002V18.5987H19.8319V17.1912Z" fill="#FEFEFD"/>
<path d="M19.3697 16.7074H18.238V18.1149H19.3697V16.7074Z" fill="#FEFEFD"/>
<path d="M18.9162 16.2499H17.7845V17.6574H18.9162V16.2499Z" fill="#FEFEFD"/>
<path d="M18.4455 15.7837H17.3138V17.1912H18.4455V15.7837Z" fill="#FEFEFD"/>
<path d="M17.5427 15.2999H16.411V16.7074H17.5427V15.2999Z" fill="#FEFEFD"/>
<path d="M17.0805 14.8468H15.6983V16.2543H17.0805V14.8468Z" fill="#FEFEFD"/>
<path d="M16.6184 14.8468H15.2362V16.2543H16.6184V14.8468Z" fill="#FEFEFD"/>
<path d="M16.1432 15.2999H14.761V16.7074H16.1432V15.2999Z" fill="#FEFEFD"/>
<path d="M15.6982 15.7837H14.316V17.1912H15.6982V15.7837Z" fill="#FEFEFD"/>
<path d="M12.4631 15.7837H11.0809V17.1912H12.4631V15.7837Z" fill="#FEFEFD"/>
<path d="M11.5647 15.2999H10.1825V16.7074H11.5647V15.2999Z" fill="#FEFEFD"/>
<path d="M11.0637 14.8908H9.68147V16.2983H11.0637V14.8908Z" fill="#FEFEFD"/>
<path d="M11.0852 14.8468H9.70304V16.2543H11.0852V14.8468Z" fill="#FEFEFD"/>
<path d="M10.636 14.3674H9.25383V15.7749H10.636V14.3674Z" fill="#FEFEFD"/>
<path d="M10.1868 13.9056H8.80461V15.3131H10.1868V13.9056Z" fill="#FEFEFD"/>
<path d="M9.7031 13.4393H8.32092V14.8468H9.7031V13.4393Z" fill="#FEFEFD"/>
<path d="M9.25388 13.4393H7.8717V14.8468H9.25388V13.4393Z" fill="#FEFEFD"/>
<path d="M9.7031 13.9671H8.32092V15.3746H9.7031V13.9671Z" fill="#FEFEFD"/>
<path d="M11.271 15.5946H9.88879V17.0021H11.271V15.5946Z" fill="#FEFEFD"/>
<path d="M12.9123 16.7601H11.5301V18.1676H12.9123V16.7601Z" fill="#FEFEFD"/>
<path d="M14.1606 17.1912H12.7785V18.5987H14.1606V17.1912Z" fill="#FEFEFD"/>
<path d="M13.2579 16.2499H11.8757V17.6574H13.2579V16.2499Z" fill="#FEFEFD"/>
<path d="M11.7029 16.0564H10.3207V17.4639H11.7029V16.0564Z" fill="#FEFEFD"/>
<path d="M15.4479 16.6326H14.0657V18.0401H15.4479V16.6326Z" fill="#FEFEFD"/>
<path d="M9.25388 12.4981H7.8717V13.9056H9.25388V12.4981Z" fill="#FEFEFD"/>
<path d="M8.80467 11.5568H7.42248V12.9643H8.80467V11.5568Z" fill="#FEFEFD"/>
<path d="M8.33376 10.0437H6.95158V11.7811H8.33376V10.0437Z" fill="#FEFEFD"/>
<path d="M8.7657 8.39874H7.38351V10.1361H8.7657V8.39874Z" fill="#FEFEFD"/>
<path d="M8.80467 8.42512H7.42248V10.1625H8.80467V8.42512Z" fill="#FEFEFD"/>
<path d="M9.25388 7.95448H7.8717V9.69187H9.25388V7.95448Z" fill="#FEFEFD"/>
<path d="M9.7161 7.80933H8.33391V9.21683H9.7161V7.80933Z" fill="#FEFEFD"/>
<path d="M9.25388 6.88127H7.8717V8.28877H9.25388V6.88127Z" fill="#FEFEFD"/>
<path d="M8.80467 6.40622H7.42248V7.81372H8.80467V6.40622Z" fill="#FEFEFD"/>
<path d="M8.33816 5.92241H6.95597V7.32991H8.33816V5.92241Z" fill="#FEFEFD"/>
<path d="M8.31658 5.46495H6.93439V6.87246H8.31658V5.46495Z" fill="#FEFEFD"/>
<path d="M7.86303 5.00752H5.03819V6.41502H7.86303V5.00752Z" fill="#FEFEFD"/>
<path d="M7.41806 4.53689H5.88037V10.4572H7.41806V4.53689Z" fill="#FEFEFD"/>
<path d="M7.57363 5.86082H6.03594V11.7811H7.57363V5.86082Z" fill="#FEFEFD"/>
<path d="M7.81123 6.40182H6.27354V12.3221H7.81123V6.40182Z" fill="#FEFEFD"/>
<path d="M15.0072 16.2499H12.4847V17.6574H15.0072V16.2499Z" fill="#FEFEFD"/>
<path d="M16.9466 16.0564H14.4241V17.4639H16.9466V16.0564Z" fill="#FEFEFD"/>
<path d="M18.1043 16.6326H15.5818V18.0401H18.1043V16.6326Z" fill="#FEFEFD"/>
<path d="M19.2964 17.2352H16.7739V18.6427H19.2964V17.2352Z" fill="#FEFEFD"/>
<path d="M19.1408 17.7146H16.6183V19.1221H19.1408V17.7146Z" fill="#FEFEFD"/>
<path d="M17.4045 17.4199H14.882V18.8274H17.4045V17.4199Z" fill="#FEFEFD"/>
<path d="M16.2642 17.3407H13.7417V18.7482H16.2642V17.3407Z" fill="#FEFEFD"/>
<path d="M16.2642 17.7146H13.7417V19.1221H16.2642V17.7146Z" fill="#FEFEFD"/>
<path d="M16.8429 18.1853H14.3204V19.5928H16.8429V18.1853Z" fill="#FEFEFD"/>
<path d="M17.7414 18.5107H15.2189V19.9182H17.7414V18.5107Z" fill="#FEFEFD"/>
<path d="M18.6053 18.5107H16.0828V19.9182H18.6053V18.5107Z" fill="#FEFEFD"/>
<path d="M18.3072 19.1133H15.7847V20.5208H18.3072V19.1133Z" fill="#FEFEFD"/>
<path d="M9.66856 15.036H8.77014V16.1488H9.66856V15.036Z" fill="#FEFEFD"/>
<path d="M14.2945 7.80053H13.3616V8.75059H14.2945V7.80053Z" fill="#FEFEFD"/>
<path d="M15.2491 5.46495H12.9382V6.41502H15.2491V5.46495Z" fill="#FEFEFD"/>
<path d="M14.7567 3.1206H11.9837V4.07066H14.7567V3.1206Z" fill="#FEFEFD"/>
<path d="M15.7156 8.27556H14.7827V9.22562H15.7156V8.27556Z" fill="#FEFEFD"/>
<path d="M16.1519 8.76819H15.2189V9.71825H16.1519V8.76819Z" fill="#FEFEFD"/>
<path d="M16.1778 5.93999H14.7827V6.89005H16.1778V5.93999Z" fill="#FEFEFD"/>
<path d="M16.6529 6.41503H15.6854V7.36509H16.6529V6.41503Z" fill="#FEFEFD"/>
<path d="M15.7329 3.59562H14.7654V4.54568H15.7329V3.59562Z" fill="#FEFEFD"/>
<path d="M16.6616 4.07946H15.6941V5.02952H16.6616V4.07946Z" fill="#FEFEFD"/>
<path d="M17.6161 4.53689H16.6486V5.48695H17.6161V4.53689Z" fill="#FEFEFD"/>
<path d="M18.0438 5.00752H17.0762V5.95759H18.0438V5.00752Z" fill="#FEFEFD"/>
<path d="M18.48 5.47816H17.5125V6.42823H18.48V5.47816Z" fill="#FEFEFD"/>
<path d="M18.9076 5.93118H17.9401V6.88124H18.9076V5.93118Z" fill="#FEFEFD"/>
<path d="M19.3913 6.40622H18.4238V7.35629H19.3913V6.40622Z" fill="#FEFEFD"/>
<path d="M19.8751 6.89003H18.9076V7.8401H19.8751V6.89003Z" fill="#FEFEFD"/>
<path d="M20.32 7.80053H19.3525V8.75059H20.32V7.80053Z" fill="#FEFEFD"/>
<path d="M20.8037 8.76819H19.8362V9.71825H20.8037V8.76819Z" fill="#FEFEFD"/>
<path d="M21.2876 9.71386H20.3201V12.5069H21.2876V9.71386Z" fill="#FEFEFD"/>
<path d="M17.1323 6.89003H16.1648V7.8401H17.1323V6.89003Z" fill="#FEFEFD"/>
<path d="M17.5513 7.32551H16.5837V8.27557H17.5513V7.32551Z" fill="#FEFEFD"/>
<path d="M18.0351 7.84012H17.0675V8.79019H18.0351V7.84012Z" fill="#FEFEFD"/>
<path d="M18.48 8.76819H17.5125V9.71825H18.48V8.76819Z" fill="#FEFEFD"/>
<path d="M18.9637 9.21243H17.9961V11.5524H18.9637V9.21243Z" fill="#FEFEFD"/>
<path d="M16.6184 9.22561H15.6854V11.0862H16.6184V9.22561Z" fill="#FEFEFD"/>
<path d="M15.2145 7.80053H14.2945V8.76818H15.2145V7.80053Z" fill="#FEFEFD"/>
</svg>
