<svg width="9" height="9" viewBox="0 0 9 9" fill="none" xmlns="http://www.w3.org/2000/svg">
<path d="M8.61414 0.890449V8.10955H8.22082V8.55324H7.73067V9H0.808972V8.55324H0.393312V8.10955H0V0.890449H0.356067V0.445224H0.816421V0H7.73812V0.445224H8.18358V0.890449H8.61414Z" fill="#19384D"/>
<path d="M8.94153 0.890449V8.10955H8.54822V8.55324H8.05806V9H1.13785V8.55324H0.720705V8.10955H0.327393V0.890449H0.683459V0.445224H1.14381V0H8.06551V0.445224H8.51097V0.890449H8.94153Z" fill="#2E4964"/>
<path d="M4.04538 6.02832V5.02832H4.54538V6.02832H4.04538ZM3.04538 6.52832V6.02832H2.54538V5.02832H2.04538V2.02832H3.04538V5.02832H3.54538V6.02832H4.04538V6.52832H3.04538ZM4.54538 5.02832V2.02832H5.04538V5.02832H4.54538ZM3.94538 6.52832V2.02832H4.94538V3.52832H5.44538V3.02832H5.94538V2.52832H6.44538V2.02832H6.94538V3.02832H6.44538V3.52832H5.94538V4.02832H5.44538V4.52832H5.94538V5.02832H6.44538V5.52832H6.94538V6.52832H6.44538V6.02832H5.94538V5.52832H5.44538V5.02832H4.94538V6.52832H3.94538Z" fill="#F7F7F7"/>
</svg>
