<svg width="21" height="20" viewBox="0 0 21 20" fill="none" xmlns="http://www.w3.org/2000/svg">
<path d="M20.1111 1.93241V17.6088H19.2137V18.5714H18.0921V19.5412H2.27647V18.5714H1.32678V17.6088H0.429443V1.93241H1.24453V0.966203H2.2989V0H18.1145V0.966203H19.124V1.93241H20.1111Z" fill="#059330"/>
<path d="M20.8589 1.93241V17.6088H19.9615V18.5714H18.8399V19.5412H3.0467V18.5714H2.07458V17.6088H1.17725V1.93241H1.99233V0.966203H3.0467V0H18.8623V0.966203H19.8718V1.93241H20.8589Z" fill="#00CB45"/>
<path d="M6.64342 2.51865H5.86572V3.33648H6.64342V2.51865Z" fill="#FEFEFD"/>
<path d="M5.90701 2.90222H5.06201V3.72006H5.90701V2.90222Z" fill="#FEFEFD"/>
<path d="M5.45079 3.28944H4.6731V4.10728H5.45079V3.28944Z" fill="#FEFEFD"/>
<path d="M7.85489 3.66579H4.28796V6.75257H7.85489V3.66579Z" fill="#FEFEFD"/>
<path d="M4.64317 4.05298H3.86548V5.99624H4.64317V4.05298Z" fill="#FEFEFD"/>
<path d="M7.66421 4.43295H3.86548V6.37621H7.66421V4.43295Z" fill="#FEFEFD"/>
<path d="M5.06566 5.20374H4.28796V7.147H5.06566V5.20374Z" fill="#FEFEFD"/>
<path d="M5.45079 5.99987H4.6731V7.94313H5.45079V5.99987Z" fill="#FEFEFD"/>
<path d="M5.83971 6.73084H5.06201V8.6741H5.83971V6.73084Z" fill="#FEFEFD"/>
<path d="M6.2285 7.50888H5.45081V9.45214H6.2285V7.50888Z" fill="#FEFEFD"/>
<path d="M6.64342 7.89246H5.86572V9.83572H6.64342V7.89246Z" fill="#FEFEFD"/>
<path d="M7.02855 8.6741H6.25085V10.6174H7.02855V8.6741Z" fill="#FEFEFD"/>
<path d="M7.41746 9.04322H6.63977V10.9865H7.41746V9.04322Z" fill="#FEFEFD"/>
<path d="M7.80638 9.43768H7.02869V11.779H7.80638V9.43768Z" fill="#FEFEFD"/>
<path d="M8.22887 10.8671H7.45117V11.7826H8.22887V10.8671Z" fill="#FEFEFD"/>
<path d="M8.22887 11.2398H7.45117V12.1553H8.22887V11.2398Z" fill="#FEFEFD"/>
<path d="M8.61754 11.627H7.83984V12.5425H8.61754V11.627Z" fill="#FEFEFD"/>
<path d="M9.03636 11.9961H8.25867V12.9117H9.03636V11.9961Z" fill="#FEFEFD"/>
<path d="M9.42528 12.3942H8.64758V13.3097H9.42528V12.3942Z" fill="#FEFEFD"/>
<path d="M9.84024 12.7814H9.03638V13.6969H9.84024V12.7814Z" fill="#FEFEFD"/>
<path d="M10.618 13.165H9.84033V14.0805H10.618V13.165Z" fill="#FEFEFD"/>
<path d="M11.0068 13.5377H10.2291V14.4532H11.0068V13.5377Z" fill="#FEFEFD"/>
<path d="M12.0238 13.9285H11.0068V14.8441H12.0238V13.9285Z" fill="#FEFEFD"/>
<path d="M12.5958 14.3049H11.4442V15.2204H12.5958V14.3049Z" fill="#FEFEFD"/>
<path d="M13.4147 14.7174H12.2257V15.6329H13.4147V14.7174Z" fill="#FEFEFD"/>
<path d="M13.8072 15.0974H13.0295V16.0129H13.8072V15.0974Z" fill="#FEFEFD"/>
<path d="M14.7083 15.4737H13.8073V16.3893H14.7083V15.4737Z" fill="#FEFEFD"/>
<path d="M15.3962 15.8609H14.6185V16.7765H15.3962V15.8609Z" fill="#FEFEFD"/>
<path d="M16.1926 15.8609H15.213V16.7765H16.1926V15.8609Z" fill="#FEFEFD"/>
<path d="M16.6301 15.4737H15.6505V16.3893H16.6301V15.4737Z" fill="#FEFEFD"/>
<path d="M17.0152 15.0974H16.0356V16.0129H17.0152V15.0974Z" fill="#FEFEFD"/>
<path d="M17.4043 14.7102H16.4247V15.6257H17.4043V14.7102Z" fill="#FEFEFD"/>
<path d="M17.8042 14.3193H16.8246V15.2349H17.8042V14.3193Z" fill="#FEFEFD"/>
<path d="M18.193 13.6969H17.2134V14.8549H18.193V13.6969Z" fill="#FEFEFD"/>
<path d="M17.8042 13.3133H16.8246V14.4713H17.8042V13.3133Z" fill="#FEFEFD"/>
<path d="M17.4043 12.9153H16.4247V14.0733H17.4043V12.9153Z" fill="#FEFEFD"/>
<path d="M17.0152 12.5389H16.0356V13.6969H17.0152V12.5389Z" fill="#FEFEFD"/>
<path d="M16.6039 12.1553H15.6243V13.3133H16.6039V12.1553Z" fill="#FEFEFD"/>
<path d="M15.8225 11.7573H14.8429V12.9153H15.8225V11.7573Z" fill="#FEFEFD"/>
<path d="M15.4225 11.3809H14.2261V12.5389H15.4225V11.3809Z" fill="#FEFEFD"/>
<path d="M15.0262 11.3809H13.8297V12.5389H15.0262V11.3809Z" fill="#FEFEFD"/>
<path d="M14.6149 11.7573H13.4185V12.9153H14.6149V11.7573Z" fill="#FEFEFD"/>
<path d="M14.226 12.1553H13.0295V13.3133H14.226V12.1553Z" fill="#FEFEFD"/>
<path d="M11.4256 12.1553H10.2291V13.3133H11.4256V12.1553Z" fill="#FEFEFD"/>
<path d="M10.6517 11.7573H9.4552V12.9153H10.6517V11.7573Z" fill="#FEFEFD"/>
<path d="M10.2179 11.4207H9.02148V12.5787H10.2179V11.4207Z" fill="#FEFEFD"/>
<path d="M10.2328 11.3809H9.03638V12.5389H10.2328V11.3809Z" fill="#FEFEFD"/>
<path d="M9.84403 10.9865H8.64758V12.1445H9.84403V10.9865Z" fill="#FEFEFD"/>
<path d="M9.45512 10.6101H8.25867V11.7681H9.45512V10.6101Z" fill="#FEFEFD"/>
<path d="M9.0363 10.2265H7.83984V11.3845H9.0363V10.2265Z" fill="#FEFEFD"/>
<path d="M8.64762 10.2265H7.45117V11.3845H8.64762V10.2265Z" fill="#FEFEFD"/>
<path d="M9.0363 10.6608H7.83984V11.8188H9.0363V10.6608Z" fill="#FEFEFD"/>
<path d="M10.3936 11.9961H9.19714V13.1541H10.3936V11.9961Z" fill="#FEFEFD"/>
<path d="M11.8144 12.9587H10.6179V14.1167H11.8144V12.9587Z" fill="#FEFEFD"/>
<path d="M12.8949 13.3133H11.6985V14.4713H12.8949V13.3133Z" fill="#FEFEFD"/>
<path d="M12.1136 12.5389H10.9171V13.6969H12.1136V12.5389Z" fill="#FEFEFD"/>
<path d="M10.7713 12.3797H9.57483V13.5377H10.7713V12.3797Z" fill="#FEFEFD"/>
<path d="M14.013 12.8538H12.8165V14.0118H14.013V12.8538Z" fill="#FEFEFD"/>
<path d="M8.64762 9.45214H7.45117V10.6101H8.64762V9.45214Z" fill="#FEFEFD"/>
<path d="M8.25871 8.6741H7.06226V9.83209H8.25871V8.6741Z" fill="#FEFEFD"/>
<path d="M7.8549 7.43287H6.65845V8.86227H7.8549V7.43287Z" fill="#FEFEFD"/>
<path d="M8.22514 6.07948H7.02869V7.50888H8.22514V6.07948Z" fill="#FEFEFD"/>
<path d="M8.25871 6.1012H7.06226V7.5306H8.25871V6.1012Z" fill="#FEFEFD"/>
<path d="M8.64762 5.71038H7.45117V7.13978H8.64762V5.71038Z" fill="#FEFEFD"/>
<path d="M9.04765 5.59457H7.8512V6.75256H9.04765V5.59457Z" fill="#FEFEFD"/>
<path d="M8.64762 4.82741H7.45117V5.9854H8.64762V4.82741Z" fill="#FEFEFD"/>
<path d="M8.25871 4.4402H7.06226V5.5982H8.25871V4.4402Z" fill="#FEFEFD"/>
<path d="M7.8549 4.04213H6.65845V5.20013H7.8549V4.04213Z" fill="#FEFEFD"/>
<path d="M7.83622 3.66579H6.63977V4.82378H7.83622V3.66579Z" fill="#FEFEFD"/>
<path d="M7.44745 3.28944H5.0022V4.44744H7.44745V3.28944Z" fill="#FEFEFD"/>
<path d="M7.05859 2.90222H5.72754V7.77304H7.05859V2.90222Z" fill="#FEFEFD"/>
<path d="M7.19678 3.99147H5.86572V8.86229H7.19678V3.99147Z" fill="#FEFEFD"/>
<path d="M7.40246 4.43295H6.07141V9.30377H7.40246V4.43295Z" fill="#FEFEFD"/>
<path d="M13.6277 12.5389H11.4442V13.6969H13.6277V12.5389Z" fill="#FEFEFD"/>
<path d="M15.3066 12.3797H13.123V13.5377H15.3066V12.3797Z" fill="#FEFEFD"/>
<path d="M16.3086 12.8538H14.1251V14.0118H16.3086V12.8538Z" fill="#FEFEFD"/>
<path d="M17.3406 13.3495H15.1571V14.5075H17.3406V13.3495Z" fill="#FEFEFD"/>
<path d="M17.206 13.744H15.0225V14.902H17.206V13.744Z" fill="#FEFEFD"/>
<path d="M15.7029 13.5015H13.5194V14.6595H15.7029V13.5015Z" fill="#FEFEFD"/>
<path d="M14.7195 13.4364H12.536V14.5944H14.7195V13.4364Z" fill="#FEFEFD"/>
<path d="M14.7195 13.744H12.536V14.902H14.7195V13.744Z" fill="#FEFEFD"/>
<path d="M15.2168 14.1312H13.0333V15.2892H15.2168V14.1312Z" fill="#FEFEFD"/>
<path d="M15.9946 14.3989H13.811V15.5569H15.9946V14.3989Z" fill="#FEFEFD"/>
<path d="M16.7424 14.3989H14.5588V15.5569H16.7424V14.3989Z" fill="#FEFEFD"/>
<path d="M16.4844 14.8947H14.3009V16.0527H16.4844V14.8947Z" fill="#FEFEFD"/>
<path d="M9.00645 11.5401H8.22876V12.4557H9.00645V11.5401Z" fill="#FEFEFD"/>
</svg>
