<svg width="13" height="10" viewBox="0 0 13 10" fill="none" xmlns="http://www.w3.org/2000/svg">
<path d="M12.4196 0.989387V9.01061H11.852V9.5036H11.1444V10H1.16707V9.5036H0.567637V9.01061H0V0.989387H0.513576V0.494694H1.1782V0H11.1556V0.494694H11.7979V0.989387H12.4196Z" fill="#D52323"/>
<path d="M12.4196 0.989387V9.01061H11.852V9.5036H11.1444V10H1.16707V9.5036H0.567637V9.01061H0V0.989387H0.513576V0.494694H1.1782V0H11.1556V0.494694H11.7979V0.989387H12.4196Z" fill="#910016"/>
<path d="M13 0.989387V9.01061H12.4323V9.5036H11.7248V10H1.7474V9.5036H1.14796V9.01061H0.580322V0.989387H1.0939V0.494694H1.75853V0H11.7359V0.494694H12.3799V0.989387H13Z" fill="#D52323"/>
<path d="M6.04841 1.37793H5.63501V8.62203H6.04841V1.37793Z" fill="white"/>
<path d="M6.46199 1.87268H6.04858V8.12739H6.46199V1.87268Z" fill="white"/>
<path d="M6.87532 2.3656H6.46191V7.63263H6.87532V2.3656Z" fill="white"/>
<path d="M7.28865 2.86035H6.87524V7.138H7.28865V2.86035Z" fill="white"/>
<path d="M7.70198 3.35498H7.28857V6.64495H7.70198V3.35498Z" fill="white"/>
<path d="M8.11555 3.84973H7.70215V6.15031H8.11555V3.84973Z" fill="white"/>
<path d="M8.52888 4.34277H8.11548V5.65568H8.52888V4.34277Z" fill="white"/>
</svg>
